<svg width="130" height="27" viewBox="0 0 130 27" fill="none" xmlns="http://www.w3.org/2000/svg">
<path fill-rule="evenodd" clip-rule="evenodd" d="M21.0735 9.68317H26.1544V12.3251H26.2218C26.7641 11.309 27.4075 10.5468 28.1526 10.0385C28.8978 9.53029 29.8343 9.27635 30.9641 9.27635C31.2572 9.27635 31.5515 9.2882 31.8451 9.31078C32.1382 9.33299 32.4092 9.37815 32.6576 9.44589V14.0867C32.2963 13.9738 31.9402 13.889 31.5908 13.8324C31.2402 13.7761 30.8741 13.7476 30.4899 13.7476C29.5189 13.7476 28.7504 13.8835 28.1867 14.1541C27.6218 14.4254 27.1872 14.8037 26.8826 15.289C26.5772 15.7747 26.3795 16.3559 26.2896 17.0333C26.1996 17.7111 26.1544 18.4562 26.1544 19.2691V26.1454H21.0735V9.68317Z" fill="#6BC3E8"/>
<path fill-rule="evenodd" clip-rule="evenodd" d="M44.892 16.0511C44.9139 15.1934 44.6318 14.459 44.0451 13.8493C43.4572 13.2396 42.7014 12.935 41.7752 12.935C41.211 12.935 40.7139 13.0253 40.2852 13.2059C39.8562 13.387 39.489 13.6179 39.1844 13.9C38.8793 14.1828 38.6421 14.5101 38.4729 14.8824C38.3034 15.2552 38.2067 15.6446 38.1853 16.0511H44.892ZM49.1938 23.2997C48.3805 24.3388 47.3525 25.1406 46.111 25.7047C44.8691 26.2692 43.5824 26.5517 42.2497 26.5517C40.9849 26.5517 39.7937 26.3485 38.6765 25.942C37.5582 25.5356 36.5872 24.954 35.7632 24.1974C34.9378 23.4411 34.2896 22.5327 33.815 21.4707C33.3412 20.4098 33.1039 19.2242 33.1039 17.9141C33.1039 16.6048 33.3412 15.4192 33.815 14.3572C34.2896 13.2966 34.9378 12.3875 35.7632 11.6309C36.5872 10.8746 37.5582 10.2927 38.6765 9.88625C39.7937 9.48017 40.9849 9.27658 42.2497 9.27658C43.4235 9.27658 44.4908 9.48017 45.451 9.88625C46.4108 10.2927 47.2233 10.8746 47.8897 11.6309C48.5552 12.3875 49.0694 13.2966 49.4307 14.3572C49.792 15.4192 49.973 16.6048 49.973 17.9141V19.5062H38.1853C38.3881 20.4776 38.8283 21.2508 39.5057 21.8265C40.1831 22.4021 41.0186 22.6904 42.0128 22.6904C42.8483 22.6904 43.5538 22.5039 44.1295 22.1315C44.7051 21.7587 45.2078 21.2794 45.6372 20.6919L49.1938 23.2997Z" fill="#6BC3E8"/>
<path fill-rule="evenodd" clip-rule="evenodd" d="M60.4197 18.9302C60.0351 18.9302 59.5553 18.9472 58.9797 18.9809C58.4041 19.015 57.8503 19.1112 57.3202 19.2689C56.7887 19.4273 56.3378 19.6642 55.9654 19.9804C55.5926 20.2965 55.4065 20.737 55.4065 21.3011C55.4065 21.9112 55.6659 22.3632 56.1857 22.656C56.7046 22.9502 57.2469 23.0965 57.8107 23.0965C58.3075 23.0965 58.788 23.0291 59.251 22.8936C59.7134 22.7578 60.1261 22.5664 60.4874 22.3173C60.8476 22.0692 61.1367 21.7535 61.351 21.3692C61.5653 20.9854 61.6731 20.5341 61.6731 20.0144V18.9302H60.4197ZM61.6731 24.0793H61.6053C61.0404 24.9599 60.2894 25.5922 59.3525 25.976C58.4148 26.3595 57.4272 26.5517 56.3881 26.5517C55.6208 26.5517 54.8816 26.4443 54.1697 26.23C53.4583 26.0156 52.8319 25.6936 52.2904 25.2646C51.7481 24.8359 51.3183 24.3051 51.0029 23.6725C50.686 23.0406 50.528 22.3065 50.528 21.4707C50.528 20.5223 50.7034 19.7209 51.0536 19.0657C51.4034 18.4112 51.8773 17.8693 52.4762 17.4403C53.0744 17.0113 53.7577 16.6781 54.5255 16.4405C55.2928 16.2035 56.0891 16.0288 56.9138 15.9156C57.7374 15.8027 58.5618 15.7353 59.3862 15.7123C60.2105 15.6901 60.9727 15.6783 61.6731 15.6783C61.6731 14.7758 61.351 14.0584 60.7073 13.5276C60.0636 12.9975 59.3018 12.7317 58.4208 12.7317C57.5856 12.7317 56.8231 12.9068 56.135 13.2566C55.4453 13.6068 54.8305 14.0865 54.2885 14.6962L51.5785 11.9188C52.5273 11.0382 53.6333 10.3774 54.8982 9.9373C56.1623 9.4968 57.472 9.27655 58.8268 9.27655C60.3182 9.27655 61.5428 9.46275 62.503 9.83551C63.4625 10.2079 64.2302 10.7561 64.8058 11.4783C65.3822 12.2013 65.7827 13.0871 66.0089 14.1376C66.2339 15.1874 66.3476 16.4012 66.3476 17.779V26.1452H61.6731V24.0793Z" fill="#6BC3E8"/>
<path fill-rule="evenodd" clip-rule="evenodd" d="M68.1755 9.68317H73.0529V11.9186H73.1202C73.2783 11.6029 73.5045 11.2867 73.7977 10.9703C74.0916 10.6541 74.4421 10.3721 74.8482 10.1233C75.2546 9.87492 75.7177 9.67169 76.2374 9.51363C76.7564 9.35594 77.3213 9.27635 77.931 9.27635C79.0826 9.27635 80.1039 9.51363 80.9964 9.98819C81.8881 10.462 82.5596 11.2075 83.0119 12.2236C83.5986 11.1624 84.3101 10.4061 85.1456 9.95376C85.9807 9.50253 87.0083 9.27635 88.228 9.27635C89.3344 9.27635 90.2658 9.46292 91.0232 9.83531C91.779 10.2077 92.378 10.7159 92.8174 11.3597C93.2582 12.0034 93.5744 12.76 93.7661 13.6296C93.9579 14.4987 94.0541 15.4301 94.0541 16.424V26.1454H88.9732V16.5591C88.9732 15.7917 88.8095 15.131 88.4823 14.5776C88.1547 14.0245 87.5732 13.7476 86.7381 13.7476C86.1502 13.7476 85.659 13.8443 85.2644 14.0356C84.8694 14.2277 84.5529 14.4928 84.316 14.8315C84.0791 15.1702 83.9096 15.5659 83.8078 16.0172C83.706 16.4695 83.6553 16.9437 83.6553 17.4401V26.1454H78.5743V17.4401C78.5743 17.1469 78.5629 16.7853 78.5403 16.3559C78.5173 15.9276 78.4392 15.5208 78.303 15.1365C78.1679 14.7527 77.9476 14.4254 77.643 14.1541C77.338 13.8835 76.8915 13.7476 76.3052 13.7476C75.6492 13.7476 75.1195 13.8665 74.7131 14.1034C74.3063 14.3407 73.9957 14.6571 73.7814 15.0517C73.5667 15.4475 73.426 15.8931 73.3583 16.3899C73.2898 16.8867 73.2565 17.406 73.2565 17.9483V26.1454H68.1755V9.68317Z" fill="#6BC3E8"/>
<path fill-rule="evenodd" clip-rule="evenodd" d="M13.9277 18.029H18.9769V0.540298H13.9277V18.029Z" fill="#6BC3E8"/>
<path fill-rule="evenodd" clip-rule="evenodd" d="M5.76643 17.9141C5.76643 19.1564 6.12216 20.1614 6.83363 20.9287C7.54547 21.6968 8.54382 22.0803 9.83127 22.0803C11.1187 22.0803 12.1178 21.6968 12.8289 20.9287C13.5407 20.1614 13.8961 19.1564 13.8961 17.9141C13.8961 16.6725 13.5407 15.6675 12.8289 14.8994C12.1178 14.132 11.1187 13.7478 9.83127 13.7478C8.54382 13.7478 7.54547 14.132 6.83363 14.8994C6.12216 15.6675 5.76643 16.6725 5.76643 17.9141ZM0.685486 17.9141C0.685486 16.6048 0.922765 15.4195 1.39732 14.3575C1.87151 13.2966 2.52005 12.3874 3.34442 11.6308C4.16916 10.8745 5.14011 10.2926 6.25803 9.88617C7.37594 9.4801 8.56641 9.2765 9.83128 9.2765C11.0958 9.2765 12.2874 9.4801 13.4049 9.88617C14.5224 10.2926 15.4938 10.8745 16.3181 11.6308C17.1421 12.3874 17.7914 13.2966 18.2656 14.3575C18.7402 15.4195 18.9771 16.6048 18.9771 17.9141C18.9771 19.2245 18.7402 20.4097 18.2656 21.4707C17.7914 22.5327 17.1421 23.4414 16.3181 24.1977C15.4938 24.9543 14.5224 25.5355 13.4049 25.9419C12.2874 26.3484 11.0958 26.5516 9.83128 26.5516C8.56641 26.5516 7.37594 26.3484 6.25803 25.9419C5.14011 25.5355 4.16916 24.9543 3.34442 24.1977C2.52005 23.4414 1.87151 22.5327 1.39732 21.4707C0.922765 20.4097 0.685486 19.2245 0.685486 17.9141Z" fill="#FFD000"/>
<path d="M124.347 0.540192H130V26.197H124.347V0.540192Z" fill="#FFD000"/>
<path d="M106.003 0.540192H110.677L121.839 26.197H115.461L113.25 20.7612H103.285L101.147 26.197H94.9136L106.003 0.540192ZM108.177 8.0053L105.06 15.9777H111.33L108.177 8.0053Z" fill="#FFD000"/>
</svg>
