<svg width="130" height="27" viewBox="0 0 130 27" fill="none" xmlns="http://www.w3.org/2000/svg">
<path fill-rule="evenodd" clip-rule="evenodd" d="M20.388 9.14298H25.4689V11.7849H25.5363C26.0786 10.7688 26.7219 10.0066 27.4671 9.49834C28.2122 8.9901 29.1488 8.73616 30.2785 8.73616C30.5717 8.73616 30.866 8.74801 31.1595 8.77059C31.4527 8.7928 31.7237 8.83796 31.9721 8.9057V13.5465C31.6108 13.4336 31.2547 13.3489 30.9052 13.2922C30.5547 13.2359 30.1886 13.2074 29.8043 13.2074C28.8334 13.2074 28.0649 13.3433 27.5011 13.6139C26.9363 13.8852 26.5017 14.2635 26.197 14.7488C25.8916 15.2345 25.694 15.8157 25.604 16.4931C25.5141 17.1709 25.4689 17.916 25.4689 18.7289V25.6052H20.388V9.14298Z" fill="white"/>
<path fill-rule="evenodd" clip-rule="evenodd" d="M44.2065 15.5109C44.2283 14.6532 43.9462 13.9188 43.3595 13.3091C42.7717 12.6994 42.0158 12.3948 41.0896 12.3948C40.5255 12.3948 40.0284 12.4851 39.5997 12.6658C39.1707 12.8468 38.8035 13.0778 38.4988 13.3598C38.1938 13.6426 37.9565 13.9699 37.7873 14.3423C37.6178 14.715 37.5212 15.1044 37.4997 15.5109H44.2065ZM48.5082 22.7595C47.695 23.7986 46.667 24.6004 45.4254 25.1645C44.1835 25.7291 42.8968 26.0115 41.5642 26.0115C40.2993 26.0115 39.1081 25.8083 37.9909 25.4018C36.8727 24.9954 35.9017 24.4138 35.0777 23.6572C34.2522 22.901 33.6041 21.9926 33.1295 20.9305C32.6557 19.8696 32.4184 18.684 32.4184 17.3739C32.4184 16.0646 32.6557 14.879 33.1295 13.817C33.6041 12.7564 34.2522 11.8473 35.0777 11.0907C35.9017 10.3344 36.8727 9.75251 37.9909 9.34606C39.1081 8.93998 40.2993 8.73639 41.5642 8.73639C42.738 8.73639 43.8052 8.93998 44.7654 9.34606C45.7253 9.75251 46.5378 10.3344 47.2041 11.0907C47.8697 11.8473 48.3838 12.7564 48.7451 13.817C49.1064 14.879 49.2874 16.0646 49.2874 17.3739V18.966H37.4997C37.7026 19.9374 38.1427 20.7107 38.8201 21.2863C39.4975 21.8619 40.333 22.1502 41.3273 22.1502C42.1628 22.1502 42.8683 21.9637 43.4439 21.5913C44.0195 21.2185 44.5222 20.7392 44.9516 20.1517L48.5082 22.7595Z" fill="white"/>
<path fill-rule="evenodd" clip-rule="evenodd" d="M59.7341 18.39C59.3495 18.39 58.8698 18.407 58.2942 18.4407C57.7185 18.4748 57.1648 18.571 56.6347 18.7287C56.1031 18.8871 55.6523 19.124 55.2799 19.4402C54.9071 19.7563 54.7209 20.1968 54.7209 20.7609C54.7209 21.371 54.9804 21.823 55.5001 22.1158C56.0191 22.41 56.5614 22.5563 57.1252 22.5563C57.6219 22.5563 58.1024 22.4889 58.5655 22.3534C59.0278 22.2176 59.4406 22.0262 59.8019 21.7771C60.162 21.529 60.4511 21.2133 60.6655 20.8291C60.8798 20.4452 60.9875 19.9939 60.9875 19.4742V18.39H59.7341ZM60.9875 23.5391H60.9198C60.3549 24.4197 59.6038 25.052 58.6669 25.4358C57.7293 25.8193 56.7417 26.0115 55.7026 26.0115C54.9352 26.0115 54.196 25.9041 53.4842 25.6898C52.7727 25.4755 52.1464 25.1534 51.6048 24.7244C51.0625 24.2957 50.6328 23.7649 50.3174 23.1323C50.0005 22.5004 49.8424 21.7664 49.8424 20.9305C49.8424 19.9821 50.0179 19.1807 50.3681 18.5255C50.7179 17.871 51.1917 17.3291 51.7906 16.9001C52.3888 16.4711 53.0722 16.1379 53.8399 15.9003C54.6073 15.6634 55.4035 15.4886 56.2282 15.3754C57.0519 15.2625 57.8762 15.1951 58.7006 15.1721C59.525 15.1499 60.2872 15.1381 60.9875 15.1381C60.9875 14.2356 60.6655 13.5182 60.0217 12.9874C59.378 12.4573 58.6162 12.1915 57.7352 12.1915C56.9001 12.1915 56.1376 12.3666 55.4494 12.7164C54.7598 13.0666 54.1449 13.5464 53.603 14.156L50.893 11.3786C51.8417 10.498 52.9478 9.83724 54.2127 9.39711C55.4768 8.95661 56.7865 8.73636 58.1413 8.73636C59.6327 8.73636 60.8572 8.92255 61.8174 9.29532C62.7769 9.66771 63.5447 10.2159 64.1203 10.9381C64.6966 11.6611 65.0972 12.5469 65.3233 13.5974C65.5484 14.6472 65.662 15.861 65.662 17.2388V25.605H60.9875V23.5391Z" fill="white"/>
<path fill-rule="evenodd" clip-rule="evenodd" d="M67.49 9.14298H72.3673V11.3784H72.4347C72.5928 11.0627 72.8189 10.7466 73.1121 10.4301C73.406 10.1139 73.7566 9.83186 74.1627 9.58311C74.5691 9.33473 75.0322 9.1315 75.5519 8.97344C76.0709 8.81575 76.6358 8.73616 77.2454 8.73616C78.397 8.73616 79.4183 8.97344 80.3108 9.448C81.2026 9.92182 81.874 10.6673 82.3264 11.6835C82.9131 10.6222 83.6246 9.86592 84.4601 9.41357C85.2952 8.96233 86.3228 8.73616 87.5425 8.73616C88.6489 8.73616 89.5802 8.92273 90.3376 9.29512C91.0935 9.66751 91.6924 10.1758 92.1318 10.8195C92.5727 11.4632 92.8888 12.2198 93.0806 13.0894C93.2723 13.9585 93.3686 14.8899 93.3686 15.8838V25.6052H88.2876V16.0189C88.2876 15.2515 88.124 14.5908 87.7968 14.0374C87.4692 13.4843 86.8876 13.2074 86.0525 13.2074C85.4647 13.2074 84.9735 13.3041 84.5789 13.4954C84.1839 13.6876 83.8674 13.9526 83.6305 14.2913C83.3936 14.63 83.2241 15.0257 83.1223 15.477C83.0205 15.9293 82.9697 16.4035 82.9697 16.8999V25.6052H77.8888V16.8999C77.8888 16.6067 77.8773 16.2451 77.8547 15.8157C77.8318 15.3874 77.7537 14.9806 77.6175 14.5963C77.4823 14.2125 77.2621 13.8852 76.9574 13.6139C76.6524 13.3433 76.206 13.2074 75.6196 13.2074C74.9637 13.2074 74.434 13.3263 74.0275 13.5632C73.6207 13.8005 73.3102 14.117 73.0958 14.5116C72.8811 14.9073 72.7405 15.353 72.6727 15.8497C72.6042 16.3465 72.5709 16.8658 72.5709 17.4081V25.6052H67.49V9.14298Z" fill="white"/>
<path fill-rule="evenodd" clip-rule="evenodd" d="M13.2422 17.4888H18.2913V9.15527e-05H13.2422V17.4888Z" fill="white"/>
<path fill-rule="evenodd" clip-rule="evenodd" d="M5.08088 17.3739C5.08088 18.6162 5.43661 19.6212 6.14808 20.3885C6.85992 21.1566 7.85827 21.5401 9.14572 21.5401C10.4332 21.5401 11.4323 21.1566 12.1434 20.3885C12.8552 19.6212 13.2106 18.6162 13.2106 17.3739C13.2106 16.1323 12.8552 15.1273 12.1434 14.3592C11.4323 13.5918 10.4332 13.2076 9.14572 13.2076C7.85827 13.2076 6.85992 13.5918 6.14808 14.3592C5.43661 15.1273 5.08088 16.1323 5.08088 17.3739ZM-6.10352e-05 17.3739C-6.10352e-05 16.0646 0.237218 14.8793 0.711776 13.8173C1.18596 12.7564 1.8345 11.8472 2.65887 11.0906C3.48361 10.3343 4.45457 9.75243 5.57248 9.34598C6.6904 8.93991 7.88086 8.73631 9.14574 8.73631C10.4102 8.73631 11.6018 8.93991 12.7194 9.34598C13.8369 9.75243 14.8082 10.3343 15.6326 11.0906C16.4566 11.8472 17.1059 12.7564 17.5801 13.8173C18.0546 14.8793 18.2915 16.0646 18.2915 17.3739C18.2915 18.6843 18.0546 19.8696 17.5801 20.9305C17.1059 21.9925 16.4566 22.9012 15.6326 23.6575C14.8082 24.4141 13.8369 24.9953 12.7194 25.4017C11.6018 25.8082 10.4102 26.0114 9.14574 26.0114C7.88086 26.0114 6.6904 25.8082 5.57248 25.4017C4.45457 24.9953 3.48361 24.4141 2.65887 23.6575C1.8345 22.9012 1.18596 21.9925 0.711776 20.9305C0.237218 19.8696 -6.10352e-05 18.6843 -6.10352e-05 17.3739Z" fill="#FFD000"/>
<path d="M123.661 0H129.314V25.6568H123.661V0Z" fill="#FFD000"/>
<path d="M105.317 0H109.992L121.153 25.6568H114.775L112.565 20.221H102.599L100.461 25.6568H94.228L105.317 0ZM107.491 7.4651L104.375 15.4375H110.644L107.491 7.4651Z" fill="#FFD000"/>
</svg>
