<svg width="359" height="240" viewBox="0 0 359 240" fill="none" xmlns="http://www.w3.org/2000/svg">
<g style="mix-blend-mode:color-burn" opacity="0.08" clip-path="url(#clip0_2413_27031)">
<path d="M4.24112 88.9701C6.72275 60.2222 15.9925 31.8834 30.9856 6.98616C32.5932 4.41029 30.4479 3.05783 28.8086 5.68511C13.6163 30.9108 4.22636 59.6241 1.711 88.7487C1.46642 91.8146 4.00076 91.9877 4.24112 88.9712V88.9701Z" fill="#231F20"/>
<path d="M34.5688 178.231C26.4524 160.24 21.5092 140.957 19.7402 121.436C18.0218 101.902 19.5989 82.105 24.345 63.0005C25.0661 60.3082 22.6161 59.6378 21.8813 62.3878C17.0667 81.765 15.4675 101.844 17.2101 121.656C19.0033 141.454 24.0172 161.014 32.2506 179.262C32.8136 180.566 33.7054 180.939 34.2821 180.673C34.8577 180.408 35.1223 179.515 34.5688 178.23V178.231Z" fill="#231F20"/>
<path d="M57.6246 188.77C41.5973 162.202 33.6485 131.137 34.746 100.392C35.018 92.7044 35.7833 85.0208 37.1886 77.437C38.5538 69.851 40.4293 62.3385 42.9141 55.0148C44.0821 51.3299 45.538 47.7395 46.9612 44.1437C48.5067 40.5952 50.0437 37.0415 51.8327 33.6063C53.53 30.1239 55.4782 26.7779 57.4106 23.4256C59.46 20.1499 61.4704 16.8343 63.7412 13.7139C66.1954 10.1465 68.8678 6.76268 71.574 3.40409C74.3687 0.135724 77.1708 -3.12739 80.2059 -6.17752C81.9696 -7.98954 80.1838 -9.78793 78.38 -7.93393C67.5016 3.20054 58.197 16.0526 50.8449 29.955C47.1678 36.9103 44.0663 44.1553 41.4023 51.544C38.7984 58.9579 36.7511 66.5459 35.1877 74.2242C29.0817 104.969 32.0345 137.266 43.7089 166.449C46.9886 174.607 50.9187 182.515 55.4466 190.069C56.8107 192.287 58.9635 190.945 57.6257 188.77H57.6246Z" fill="#017490"/>
<path d="M200.224 -55.3268C207.955 -55.2051 215.675 -54.4339 223.315 -53.1874C230.963 -51.9734 238.51 -50.0974 245.91 -47.7775C260.713 -43.1179 274.844 -36.237 287.682 -27.585C294.097 -23.2475 300.147 -18.442 305.864 -13.3186C311.499 -8.10812 316.917 -2.61643 321.815 3.3747C326.718 9.34274 331.299 15.6151 335.289 22.2567C339.318 28.8669 342.907 35.7561 345.903 42.8836C349.283 50.8515 352.077 59.0649 354.12 67.4525C354.716 69.9182 357.196 69.3736 356.587 66.8512C354.719 59.2453 352.253 51.7842 349.343 44.4942C346.38 37.2198 342.868 30.1679 338.932 23.3563C334.911 16.594 330.464 10.0845 325.563 3.94338C320.607 -2.13693 315.347 -7.98746 309.62 -13.2735C303.925 -18.5942 297.886 -23.5812 291.423 -28.0614C288.241 -30.3624 284.881 -32.4252 281.542 -34.5058C278.127 -36.4658 274.729 -38.4687 271.179 -40.1916C257.113 -47.3295 241.985 -52.3753 226.513 -55.1998C217.852 -56.8115 209.067 -57.6834 200.278 -57.8544C197.679 -57.9152 197.675 -55.3866 200.223 -55.3268H200.224Z" fill="#231F20"/>
<path d="M38.693 25.1117C43.2324 16.3474 48.5003 7.96616 54.3871 0.0906029C60.3129 -7.76396 66.8269 -15.0372 73.9112 -21.8216C88.0809 -35.4176 104.795 -46.6297 122.769 -54.8788C125.336 -55.9983 124.334 -58.3213 121.713 -57.1776C103.479 -48.8121 86.526 -37.4363 72.1538 -23.6473C64.9672 -16.7664 58.3626 -9.39027 52.3525 -1.42344C46.3814 6.56438 41.0386 15.0653 36.4338 23.9554C35.1455 26.4977 37.4268 27.6089 38.6919 25.1117H38.693Z" fill="#F47E20"/>
<path d="M114.719 226.777C105.588 220.605 97.2389 213.488 89.7276 205.514C82.2142 197.53 75.5547 188.67 69.9969 179.17C68.872 177.161 66.6466 178.381 67.801 180.439C73.4558 190.106 80.2312 199.121 87.8743 207.241C95.5153 215.354 104.007 222.591 113.297 228.87C115.26 230.174 116.64 228.052 114.72 226.777H114.719Z" fill="#231F20"/>
<path d="M185.81 235.769C156.829 233.51 128.561 221.005 107.431 201.223C105.951 199.811 104.177 201.62 105.699 203.072C127.232 223.233 156.06 235.988 185.6 238.288C187.705 238.447 187.865 235.925 185.81 235.768V235.769Z" fill="#231F20"/>
<path d="M200.654 220.655C178.632 221.446 156.373 215.783 137.437 204.446C132.737 201.571 128.188 198.449 123.92 194.981C119.694 191.474 115.602 187.801 111.907 183.726L110.498 182.223L109.158 180.655C108.271 179.604 107.364 178.572 106.503 177.5C104.829 175.319 103.115 173.166 101.593 170.871C99.9862 168.636 98.582 166.268 97.1324 163.931C95.7999 161.527 94.3957 159.155 93.2318 156.665C90.494 151.152 88.1853 145.423 86.4153 139.535C85.8702 137.814 83.4245 138.496 83.9863 140.272C90.5225 161.745 103.516 181.313 120.764 195.653C137.948 210.138 159.504 219.562 181.866 222.313C188.122 223.092 194.441 223.434 200.742 223.181C202.607 223.13 202.469 220.607 200.656 220.654L200.654 220.655Z" fill="#017490"/>
<path d="M97.0017 48.2011C99.808 43.4775 102.865 38.886 106.335 34.6261C107.994 32.4332 109.879 30.4365 111.671 28.358C113.595 26.4001 115.432 24.3594 117.481 22.5222C125.456 14.9551 134.595 8.57889 144.421 3.58034C164.102 -6.41885 186.653 -10.5402 208.584 -8.27075C214.725 -7.64226 220.809 -6.4923 226.775 -4.90586C228.524 -4.42741 229.24 -6.85219 227.435 -7.34638C205.656 -13.2074 182.256 -12.6628 160.78 -5.81344C158.077 -5.01288 155.456 -3.96994 152.813 -2.99415C150.222 -1.88721 147.604 -0.836928 145.09 0.441039C142.53 1.62562 140.08 3.02215 137.609 4.37567C135.207 5.84459 132.757 7.24742 130.459 8.87897C121.097 15.166 112.775 22.8747 105.596 31.4732C101.602 36.3248 98.0053 41.5091 94.8058 46.9273C93.8833 48.5463 96.1035 49.7739 96.9996 48.2001L97.0017 48.2011Z" fill="#231F20"/>
<path d="M180.799 -38.9986C208.579 -42.054 237.268 -37.0061 262.383 -24.4122C265.546 -22.8908 268.58 -21.1323 271.626 -19.3989C273.129 -18.4987 274.603 -17.5544 276.084 -16.6206C277.574 -15.6993 279.021 -14.7183 280.444 -13.7037C286.226 -9.75648 291.599 -5.30248 296.717 -0.607159C301.822 4.10495 306.542 9.26404 310.984 14.6529C315.331 20.1257 319.369 25.8556 322.939 31.8771C326.914 38.6289 330.356 45.6871 333.219 52.9636C334.03 55.1134 336.418 54.251 335.586 52.0465C330.398 38.822 323.298 26.2899 314.529 15.0873L312.892 12.9815L311.176 10.9439C310.022 9.59454 308.886 8.22634 307.695 6.9127C305.276 4.32319 302.872 1.7085 300.287 -0.700542C295.222 -5.63194 289.744 -10.1352 283.986 -14.3049C278.255 -18.5123 272.105 -22.1689 265.812 -25.5191C259.489 -28.8315 252.899 -31.6194 246.182 -34.0232C239.44 -36.3671 232.538 -38.2085 225.554 -39.6208C218.556 -40.9628 211.478 -41.8169 204.376 -42.2187C196.42 -42.6048 188.44 -42.3614 180.524 -41.5115C178.185 -41.2429 178.511 -38.7363 180.799 -38.9986Z" fill="#F47E20"/>
<path d="M224.165 -21.4785C248.661 -16.331 271.683 -3.83459 289.239 13.7506C298.051 22.54 305.716 32.5959 311.68 43.5771C313.234 46.2894 314.54 49.1297 315.9 51.9385C317.142 54.8018 318.414 57.6547 319.456 60.5947C320.596 63.501 321.484 66.4903 322.427 69.4607C323.233 72.4688 324.09 75.4676 324.695 78.5229C326.147 85.3377 327.136 92.2584 327.455 99.2191C327.566 101.261 330.105 101.19 329.991 99.0889C328.726 73.7709 319.969 48.7708 304.936 28.1513C297.389 17.8699 288.51 8.66913 278.435 0.932079C275.962 -1.06356 273.296 -2.82523 270.69 -4.6509C267.996 -6.35485 265.331 -8.10917 262.521 -9.63056C256.982 -12.8034 251.176 -15.5168 245.223 -17.824C238.562 -20.4282 231.688 -22.4921 224.695 -23.9484C222.63 -24.3996 222.15 -21.9171 224.165 -21.4764V-21.4785Z" fill="#231F20"/>
<path d="M88.0345 178.603C79.897 166.564 73.7762 153.159 70.1202 139.141C68.2722 132.139 67.0018 124.991 66.3229 117.788C65.6788 110.582 65.6335 103.328 66.1753 96.1133C66.3324 94.0726 63.8044 93.826 63.6431 95.9245C63.0896 103.279 63.1371 110.674 63.7939 118.018C64.4854 125.36 65.78 132.646 67.6639 139.785C71.3905 154.074 77.6305 167.741 85.9271 180.014C87.1247 181.752 89.2026 180.299 88.0345 178.603Z" fill="#0C8040"/>
<path d="M74.7693 25.0865C83.8883 11.6311 94.9818 -0.275578 108.008 -10.1048C120.954 -19.9833 135.659 -27.6155 151.142 -32.6455C153.339 -33.3411 152.606 -35.7628 150.354 -35.0482C134.601 -29.9311 119.64 -22.1657 106.469 -12.1151C93.216 -2.11278 81.9348 9.99328 72.6577 23.6837C71.3811 25.6615 73.5222 27.0223 74.7704 25.0865H74.7693Z" fill="#231F20"/>
<path d="M97.9969 20.3702C107.465 9.46444 118.914 0.153542 131.537 -7.10611C144.187 -14.3416 158.058 -19.3779 172.336 -22.1101C174.363 -22.4512 173.95 -24.9452 171.865 -24.5937C157.31 -21.809 143.17 -16.6741 130.273 -9.29796C117.403 -1.89771 105.732 7.59681 96.0835 18.7103C94.7024 20.2915 96.6506 21.9146 97.9979 20.3712L97.9969 20.3702Z" fill="#0C8040"/>
<path d="M300.893 56.6286C311.961 79.697 314.929 106.424 309.2 131.318C308.802 133.079 311.267 133.693 311.677 131.875C317.531 106.432 314.499 79.1252 303.187 55.5437C302.368 53.8701 300.098 55.0023 300.893 56.6286Z" fill="#231F20"/>
<path d="M56.6199 148.587C53.3697 138.104 51.3815 127.264 50.6056 116.349C50.4516 114.065 47.9141 114.187 48.0723 116.529C48.8619 127.633 50.8849 138.661 54.191 149.325C54.9004 151.566 57.3146 150.779 56.6199 148.588V148.587Z" fill="#231F20"/>
<path d="M50.6436 94.9539C51.4827 84.0408 53.4731 73.1844 56.7812 62.7036C57.4928 60.5181 55.085 59.7144 54.3555 61.9555C50.9904 72.6189 48.9652 83.6621 48.1113 94.7651C47.9374 97.1038 50.4738 97.2423 50.6436 94.9539Z" fill="#F47E20"/>
<path d="M71.6593 67.2919C74.5922 57.9265 78.5866 48.8779 83.5446 40.3948C84.5672 38.6132 82.4029 37.2902 81.3508 39.1221C76.2968 47.771 72.2234 56.9958 69.2346 66.5449C68.6032 68.5552 71.0447 69.253 71.6604 67.293L71.6593 67.2919Z" fill="#231F20"/>
<path d="M258.279 8.8559C265.616 13.4757 272.407 18.9054 278.522 24.9994C279.79 26.2837 281.631 24.5419 280.322 23.2168C274.074 16.9895 267.137 11.4423 259.637 6.71965C258.058 5.72498 256.744 7.8885 258.279 8.8559Z" fill="#231F20"/>
<path d="M81.6797 114.136C81.0767 105.533 81.3782 96.8572 82.7223 88.328C83.0291 86.5506 80.5275 86.1078 80.2123 87.9429C78.8386 96.66 78.5308 105.526 79.1464 114.316C79.2751 116.169 81.8041 115.938 81.6797 114.136Z" fill="#017490"/>
<path d="M100.335 125.775C97.2779 111.348 97.7049 96.2434 101.255 81.9497C101.666 80.4671 99.2177 79.7946 98.7928 81.3338C95.1484 95.9969 94.7141 111.488 97.8483 126.285C98.1835 127.843 100.66 127.282 100.335 125.775Z" fill="#231F20"/>
<path d="M134.09 159.911C128.013 153.011 123.237 145.058 119.764 136.581C116.395 128.058 114.396 118.981 113.952 109.809C113.908 108.514 111.369 108.577 111.416 109.928C111.874 119.379 113.932 128.734 117.407 137.518C120.984 146.257 125.911 154.457 132.174 161.569C133.046 162.601 134.929 160.904 134.091 159.911H134.09Z" fill="#231F20"/>
<path d="M151.396 155.42C141.809 146.709 134.948 135.466 131.682 123.05C128.386 110.664 128.765 97.2643 132.761 85.1341C133.873 81.7378 135.218 78.4138 136.901 75.2577C137.363 74.3197 135.134 73.1089 134.644 74.0983C128.513 85.8392 125.914 99.4362 127.233 112.707C128.524 125.982 133.668 138.773 142.007 149.12C144.354 152.01 146.923 154.735 149.684 157.288C150.532 158.012 152.204 156.109 151.395 155.42H151.396Z" fill="#017490"/>
<path d="M178.686 41.4241C191.084 37.9847 204.555 38.1946 216.8 42.0148C219.876 42.9329 222.834 44.1784 225.744 45.5067C228.639 46.878 231.398 48.5106 234.097 50.2408C239.389 53.8428 244.341 58.1888 248.429 63.1233C250.717 65.887 252.849 68.7755 254.651 71.8634C255.189 72.7605 257.404 71.5235 256.838 70.5771C250.144 59.1855 239.761 49.6575 227.906 43.765C216.03 37.8221 202.334 35.4068 189.022 36.8883C185.299 37.2859 181.603 37.9669 178.009 38.9899C176.935 39.2658 177.663 41.6875 178.686 41.4262V41.4241Z" fill="#017490"/>
<path d="M115.233 91.0025C118.477 72.9326 128.087 56.2089 141.969 44.0262C142.965 43.1931 141.326 41.2604 140.289 42.1313C125.991 54.6749 116.078 71.9243 112.735 90.5482C112.504 91.8776 115.012 92.2805 115.233 91.0025Z" fill="#0C8040"/>
<path d="M189.991 23.7529C199.186 22.965 208.495 23.8411 217.415 26.0728C226.339 28.3412 234.823 32.1573 242.509 37.1936C243.58 37.926 245.034 35.8537 243.915 35.0888C235.994 29.8962 227.245 25.9626 218.047 23.6239C208.852 21.3218 199.26 20.4227 189.785 21.2327C188.432 21.324 188.69 23.839 189.991 23.7519V23.7529Z" fill="#F47E20"/>
<path d="M109.22 61.0311C112.593 54.4734 116.743 48.3144 121.545 42.7052C122.56 41.5448 120.658 39.8691 119.606 41.0726C114.682 46.8245 110.425 53.1441 106.964 59.8717C106.246 61.2956 108.526 62.4088 109.221 61.0311H109.22Z" fill="#231F20"/>
<path d="M131.661 32.4039C137.221 27.5386 143.327 23.2976 149.832 19.7847C151.185 19.0429 150.028 16.7934 148.623 17.5624C141.948 21.1666 135.683 25.5188 129.981 30.5089C128.788 31.5708 130.508 33.4311 131.661 32.4039Z" fill="#231F20"/>
<path d="M157.25 33.4164C162.713 30.4575 168.516 28.1041 174.532 26.482C175.789 26.1525 175.168 23.7005 173.855 24.0457C167.655 25.7192 161.673 28.144 156.041 31.1941C154.855 31.8436 156.112 34.0407 157.251 33.4164H157.25Z" fill="#231F20"/>
<path d="M145.326 62.7351C148.631 58.8624 152.35 55.3653 156.377 52.3456C157.209 51.7045 155.729 49.6501 154.851 50.3248C150.67 53.4599 146.813 57.0871 143.387 61.1014C142.648 61.9345 144.621 63.5273 145.326 62.734V62.7351Z" fill="#F47E20"/>
<path d="M211.52 9.06889C218.837 10.1937 226.025 12.1222 232.911 14.8218C234.355 15.3716 235.342 13.0423 233.844 12.4716C226.779 9.70263 219.404 7.72272 211.899 6.57066C210.313 6.35557 209.985 8.86219 211.519 9.06994L211.52 9.06889Z" fill="#F47E20"/>
<path d="M181.352 155.076C173.976 152.74 167.154 148.929 161.395 143.487C160.81 142.915 159.035 144.723 159.66 145.333C165.691 151.028 172.858 155.042 180.6 157.49C181.418 157.754 182.118 155.324 181.352 155.076Z" fill="#231F20"/>
<path d="M204.26 141.074C202.285 141.487 200.269 141.749 198.241 141.854C196.212 141.931 194.179 141.828 192.179 141.584C190.179 141.332 188.203 140.945 186.292 140.379C184.388 139.792 182.546 139.062 180.769 138.196C180.274 137.947 179.1 140.188 179.645 140.463C181.55 141.392 183.526 142.175 185.564 142.802C187.611 143.409 189.725 143.824 191.865 144.094C194.007 144.356 196.179 144.464 198.349 144.38C200.517 144.27 202.673 143.991 204.786 143.548C205.393 143.421 204.815 140.96 204.261 141.075L204.26 141.074Z" fill="#231F20"/>
<path d="M203.38 125.286C199.699 126.552 195.387 126.722 191.619 125.763C187.844 124.821 184.583 122.893 181.643 119.8C180.877 118.975 180.157 118.162 179.598 117.253C179.405 117.012 177.265 118.373 177.488 118.661C182.625 126.268 191.524 130.069 200.581 128.564C201.812 128.345 203.036 128.092 204.192 127.681C204.542 127.564 203.677 125.187 203.38 125.286Z" fill="#EE4623"/>
<path d="M176.74 101.115C177.662 97.3336 179.513 94.0946 182.578 91.1106C185.468 88.3448 188.818 86.6167 192.78 85.8497C193.881 85.664 195.003 85.5486 196.127 85.5066C196.451 85.5056 196.432 82.9769 196.053 82.9801C191.514 83.1102 187.194 84.5392 183.687 86.9619C183.211 87.22 182.832 87.624 182.365 87.9083C181.983 88.3144 181.491 88.5735 181.119 89.0111C180.256 89.7245 179.504 90.6667 178.747 91.5135C178.012 92.3843 177.441 93.315 176.827 94.209C176.315 95.1575 175.807 96.0965 175.381 97.0797C174.94 98.196 174.567 99.3439 174.268 100.53C174.198 100.892 176.68 101.422 176.74 101.114V101.115Z" fill="#231F20"/>
<path d="M176.476 58.578C185.515 54.7389 195.856 53.5533 205.606 55.252C215.386 56.9339 224.385 61.3596 231.789 68.1324C233.857 70.0409 235.719 72.0985 237.446 74.242C237.929 74.8831 239.962 73.3659 239.443 72.6808C237.818 70.6788 236.13 68.7073 234.185 66.9341C233.28 65.9814 232.217 65.2029 231.26 64.3048C230.204 63.5441 229.243 62.648 228.148 61.9545C223.941 58.9264 219.318 56.595 214.449 54.9005C204.711 51.5272 193.817 51.033 183.724 53.5113C180.893 54.1817 178.15 55.1418 175.485 56.2508C174.694 56.5866 175.736 58.8917 176.476 58.578Z" fill="#231F20"/>
<path d="M193.769 70.1102C200.756 69.5362 207.786 71.0094 213.759 74.2074C215.249 75.0342 216.693 75.9491 218.105 76.9522C219.452 78.0371 220.887 79.1063 222.112 80.3916C223.355 81.6402 224.547 82.9014 225.548 84.2864C226.118 84.9316 226.514 85.6881 227.048 86.3544C227.445 87.1056 227.977 87.7772 228.337 88.5483C229.259 90.2072 230.089 91.9279 230.703 93.7452C230.915 94.2604 233.325 93.463 233.094 92.8943C230.621 86.0124 226.241 79.9583 220.141 75.3343C214.253 70.8478 207.277 68.1817 199.82 67.5899C197.745 67.4283 195.645 67.3842 193.564 67.5888C192.941 67.6172 193.2 70.1322 193.769 70.1081V70.1102Z" fill="#017490"/>
<path d="M236.114 195.708C218.87 203.225 199.43 205.634 180.852 202.609C162.263 199.64 144.603 191.2 130.68 178.571C126.792 175.029 123.161 171.213 119.839 167.141C118.901 165.919 116.884 167.455 117.858 168.722C129.954 183.699 146.379 195.199 164.721 201.248C183.035 207.355 203.111 208.045 221.814 203.26C227.056 201.955 232.186 200.195 237.13 198.024C238.602 197.397 237.538 195.101 236.115 195.708H236.114Z" fill="#231F20"/>
<path d="M173.852 133.767C170.677 131.093 167.929 128.087 165.91 124.712C164.881 123.031 163.954 121.284 163.214 119.442C162.486 117.595 161.899 115.683 161.462 113.724C161.344 113.174 158.852 113.662 158.981 114.266C159.448 116.362 160.079 118.41 160.858 120.387C161.652 122.36 162.641 124.234 163.745 126.036C165.915 129.653 168.851 132.872 172.239 135.721C172.74 136.092 174.311 134.105 173.851 133.767H173.852Z" fill="#017490"/>
<path d="M147.225 90.9479C148.938 85.514 151.439 80.3664 154.85 75.7456C156.557 73.4415 158.471 71.2276 160.528 69.1711C162.61 67.1587 164.832 65.3445 167.166 63.7056C167.829 63.2545 166.421 61.1508 165.711 61.6345C163.261 63.3541 160.93 65.2585 158.748 67.3685C156.592 69.5215 154.587 71.8404 152.797 74.2578C149.22 79.1042 146.589 84.5109 144.795 90.2156C144.571 91.0434 147.018 91.7244 147.226 90.9479H147.225Z" fill="#0C8040"/>
<path d="M163.774 91.1546C164.596 89.3625 165.555 87.6376 166.649 85.9693C167.774 84.3262 169.077 82.7461 170.487 81.2362C171.886 79.7065 173.411 78.3918 175.005 77.2019C176.598 76.0121 178.258 74.9356 180.012 74.0186C180.515 73.7835 179.392 71.5151 178.84 71.7763C176.959 72.7584 175.178 73.9115 173.473 75.1864C171.766 76.4622 170.135 77.8713 168.641 79.5008C167.137 81.1114 165.745 82.7996 164.541 84.5602C163.369 86.3439 162.34 88.1937 161.46 90.1149C161.216 90.672 163.553 91.6614 163.775 91.1546H163.774Z" fill="#231F20"/>
<path d="M211.988 92.2658C213.523 93.9939 214.751 95.7923 215.595 97.8666C216.03 98.8906 216.4 99.9598 216.685 101.07C216.934 102.189 217.103 103.339 217.186 104.499C217.212 104.821 219.748 104.7 219.719 104.324C219.627 103.025 219.436 101.736 219.155 100.48C218.838 99.2337 218.422 98.0313 217.932 96.8772C216.978 94.5437 215.593 92.5019 213.868 90.5671C213.598 90.2995 211.755 92.0391 211.988 92.2668V92.2658Z" fill="#231F20"/>
<path d="M153.721 134.519C151.546 131.342 149.775 127.906 148.416 124.295C148.138 123.542 145.743 124.388 146.042 125.193C147.469 128.983 149.33 132.591 151.611 135.927C152.101 136.628 154.18 135.176 153.721 134.519Z" fill="#231F20"/>
<path d="M146.247 117.05C145.425 113.261 144.975 109.367 145.017 105.475C145.051 104.667 142.512 104.59 142.477 105.454C142.434 109.535 142.904 113.618 143.767 117.591C143.941 118.435 146.41 117.841 146.247 117.049V117.05Z" fill="#231F20"/>
<path d="M160.593 105.603C160.637 102.87 160.973 100.156 161.585 97.5319C161.693 96.9831 159.234 96.3442 159.114 96.9475C158.457 99.7573 158.1 102.662 158.054 105.582C158.057 106.202 160.596 106.169 160.593 105.603Z" fill="#231F20"/>
<path d="M202.259 86.2421C203.722 86.6587 205.139 87.157 206.443 87.902C206.704 88.0678 207.962 85.8717 207.653 85.6797C206.181 84.8435 204.584 84.2727 202.936 83.8058C202.583 83.704 201.96 86.155 202.26 86.2421H202.259Z" fill="#0C8040"/>
<path d="M177.534 113.271C177.003 111.853 176.597 110.351 176.363 108.8C176.348 108.476 173.825 108.77 173.848 109.148C174.108 110.888 174.562 112.574 175.161 114.171C175.275 114.519 177.629 113.569 177.535 113.272L177.534 113.271Z" fill="#231F20"/>
<path d="M282.338 26.7485C281.209 27.975 279.294 28.059 278.061 26.9342C276.829 25.8105 276.745 23.904 277.875 22.6775C279.004 21.4509 280.919 21.367 282.152 22.4917C283.384 23.6165 283.468 25.5219 282.338 26.7485Z" fill="#0C8040"/>
<path d="M301.226 57.9537C302.897 57.9537 304.252 56.6051 304.252 54.9414C304.252 53.2777 302.897 51.929 301.226 51.929C299.554 51.929 298.199 53.2777 298.199 54.9414C298.199 56.6051 299.554 57.9537 301.226 57.9537Z" fill="#231F20"/>
<path d="M312.244 133.989C311.115 135.215 309.2 135.299 307.967 134.174C306.735 133.051 306.651 131.144 307.781 129.918C308.91 128.691 310.825 128.607 312.058 129.732C313.29 130.856 313.375 132.762 312.244 133.989Z" fill="#231F20"/>
<path d="M260.873 9.40675C259.744 10.6333 257.829 10.7172 256.596 9.59246C255.364 8.46873 255.28 6.56228 256.41 5.33572C257.539 4.10917 259.454 4.02523 260.687 5.15C261.919 6.27373 262.004 8.18019 260.873 9.40675Z" fill="#0C8040"/>
<path d="M235.007 15.6329C233.878 16.8594 231.963 16.9434 230.73 15.8186C229.498 14.6949 229.414 12.7884 230.544 11.5619C231.673 10.3353 233.588 10.2514 234.821 11.3761C236.053 12.4999 236.137 14.4063 235.007 15.6329Z" fill="#231F20"/>
<path d="M213.873 9.65437C212.744 10.8809 210.829 10.9649 209.596 9.84008C208.364 8.71635 208.28 6.80989 209.41 5.58334C210.54 4.35679 212.454 4.27285 213.687 5.39762C214.919 6.52135 215.003 8.42781 213.873 9.65437Z" fill="#231F20"/>
<path d="M85.1207 41.1146C83.9916 42.3411 82.0761 42.4251 80.8437 41.3003C79.6113 40.1766 79.527 38.2701 80.6571 37.0435C81.7862 35.817 83.7017 35.7331 84.9341 36.8578C86.1665 37.9816 86.2508 39.888 85.1207 41.1146Z" fill="#231F20"/>
<path d="M116.199 92.6152C115.07 93.8417 113.154 93.9257 111.922 92.8009C110.69 91.6772 110.605 89.7707 111.735 88.5441C112.866 87.3176 114.78 87.2337 116.012 88.3584C117.245 89.4822 117.329 91.3886 116.199 92.6152Z" fill="#231F20"/>
<path d="M51.2117 116.559C50.0827 117.785 48.1672 117.869 46.9348 116.744C45.7024 115.621 45.6181 113.714 46.7482 112.488C47.8773 111.261 49.7928 111.177 51.0251 112.302C52.2575 113.426 52.3419 115.332 51.2117 116.559Z" fill="#231F20"/>
<path d="M56.0348 154.102C57.7064 154.102 59.0615 152.754 59.0615 151.09C59.0615 149.426 57.7064 148.078 56.0348 148.078C54.3633 148.078 53.0082 149.426 53.0082 151.09C53.0082 152.754 54.3633 154.102 56.0348 154.102Z" fill="#231F20"/>
<path d="M69.589 71.8988C71.2589 71.8263 72.5536 70.42 72.4807 68.7579C72.4078 67.0959 70.9949 65.8073 69.3249 65.8799C67.6549 65.9524 66.3603 67.3586 66.4332 69.0207C66.5061 70.6828 67.919 71.9714 69.589 71.8988Z" fill="#231F20"/>
<path d="M36.5149 182.71C35.3858 183.936 33.4703 184.02 32.2379 182.895C31.0056 181.772 30.9212 179.865 32.0513 178.639C33.1804 177.412 35.0959 177.328 36.3283 178.453C37.5607 179.577 37.645 181.483 36.5149 182.71Z" fill="#017490"/>
<path d="M108.094 202.65C106.965 203.877 105.05 203.961 103.817 202.836C102.585 201.712 102.501 199.806 103.631 198.579C104.76 197.353 106.675 197.269 107.908 198.394C109.14 199.517 109.224 201.424 108.094 202.65Z" fill="#F47E20"/>
<path d="M189.984 239.022C188.855 240.249 186.939 240.333 185.707 239.208C184.474 238.084 184.39 236.178 185.52 234.951C186.649 233.725 188.565 233.641 189.797 234.765C191.029 235.889 191.114 237.796 189.984 239.022Z" fill="#F47E20"/>
<path d="M25.5658 62.2545C24.4367 63.4811 22.5212 63.565 21.2888 62.4403C20.0565 61.3165 19.9721 59.4101 21.1023 58.1835C22.2313 56.957 24.1468 56.873 25.3792 57.9978C26.6116 59.1215 26.6959 61.028 25.5658 62.2545Z" fill="#017490"/>
<path d="M59.6698 191.759C58.5407 192.986 56.6252 193.07 55.3928 191.945C54.1604 190.821 54.0761 188.915 55.2062 187.688C56.3353 186.462 58.2508 186.378 59.4832 187.503C60.7155 188.626 60.7999 190.533 59.6698 191.759Z" fill="#231F20"/>
<path d="M98.5883 23.2262C97.4592 24.4528 95.5437 24.5367 94.3113 23.4119C93.0789 22.2882 92.9946 20.3817 94.1247 19.1552C95.2538 17.9286 97.1693 17.8447 98.4017 18.9695C99.634 20.0942 99.7184 21.9997 98.5883 23.2262Z" fill="#F47E20"/>
<path d="M142.125 45.5885C140.996 46.8151 139.081 46.899 137.848 45.7742C136.616 44.6505 136.532 42.744 137.662 41.5175C138.792 40.2909 140.706 40.207 141.939 41.3318C143.171 42.4555 143.255 44.362 142.125 45.5885Z" fill="#F47E20"/>
<path d="M165.224 92.6624C164.095 93.8889 162.18 93.9729 160.947 92.8481C159.715 91.7244 159.631 89.8179 160.761 88.5914C161.89 87.3648 163.805 87.2809 165.038 88.4057C166.27 89.5294 166.354 91.4358 165.224 92.6624Z" fill="#F47E20"/>
<path d="M5.25947 92.6152C4.13041 93.8417 2.21489 93.9257 0.982514 92.8009C-0.249866 91.6772 -0.334204 89.7707 0.795917 88.5441C1.92498 87.3176 3.8405 87.2337 5.07288 88.3584C6.30526 89.4822 6.38959 91.3886 5.25947 92.6152Z" fill="#F47E20"/>
<path d="M152.7 20.2128C151.571 21.4394 149.656 21.5233 148.423 20.3985C147.191 19.2748 147.107 17.3683 148.237 16.1418C149.367 14.9152 151.281 14.8313 152.514 15.9561C153.746 17.0798 153.83 18.9863 152.7 20.2128Z" fill="#017490"/>
<path d="M33.4883 6.64097C32.3592 7.86752 30.4437 7.95146 29.2113 6.82668C27.979 5.70295 27.8946 3.79649 29.0247 2.56994C30.1538 1.34339 32.0693 1.25945 33.3017 2.38423C34.5341 3.50796 34.6184 5.41441 33.4883 6.64097Z" fill="#0C8040"/>
<path d="M131.464 34.1632C132.912 33.3319 133.409 31.4897 132.573 30.0486C131.738 28.6075 129.887 28.1133 128.439 28.9446C126.991 29.7759 126.495 31.6181 127.33 33.0592C128.165 34.5002 130.016 34.9945 131.464 34.1632Z" fill="#017490"/>
<path d="M179.22 76.33C180.892 76.33 182.247 74.9813 182.247 73.3177C182.247 71.654 180.892 70.3053 179.22 70.3053C177.549 70.3053 176.193 71.654 176.193 73.3177C176.193 74.9813 177.549 76.33 179.22 76.33Z" fill="#017490"/>
<path d="M114.844 110.269C113.715 111.495 111.8 111.579 110.567 110.454C109.335 109.329 109.251 107.424 110.381 106.198C111.51 104.971 113.425 104.887 114.658 106.012C115.89 107.137 115.974 109.042 114.844 110.269Z" fill="#231F20"/>
<path d="M136.297 163.232C135.168 164.458 133.252 164.542 132.02 163.417C130.787 162.294 130.703 160.387 131.833 159.161C132.962 157.934 134.878 157.85 136.11 158.975C137.342 160.099 137.427 162.005 136.297 163.232Z" fill="#231F20"/>
<path d="M162.348 116.359C163.679 115.352 163.939 113.463 162.928 112.138C161.917 110.813 160.018 110.555 158.687 111.561C157.356 112.567 157.096 114.457 158.107 115.782C159.118 117.107 161.017 117.365 162.348 116.359Z" fill="#231F20"/>
<path d="M175.868 137.843C177.224 136.869 177.529 134.986 176.551 133.637C175.573 132.288 173.681 131.984 172.325 132.958C170.97 133.931 170.664 135.814 171.643 137.163C172.621 138.512 174.513 138.817 175.868 137.843Z" fill="#231F20"/>
<path d="M178.425 59.025C177.296 60.2516 175.381 60.3355 174.148 59.2107C172.916 58.0859 172.832 56.1805 173.962 54.954C175.091 53.7274 177.006 53.6435 178.239 54.7683C179.471 55.892 179.555 57.7984 178.425 59.025Z" fill="#231F20"/>
<path d="M240.984 75.3532C239.854 76.5797 237.939 76.6637 236.707 75.5389C235.474 74.4152 235.39 72.5087 236.52 71.2822C237.65 70.0556 239.565 69.9717 240.797 71.0964C242.029 72.2202 242.114 74.1266 240.984 75.3532Z" fill="#231F20"/>
<path d="M358.205 71.1237C357.076 72.3503 355.161 72.4342 353.928 71.3094C352.696 70.1857 352.611 68.2793 353.742 67.0527C354.871 65.8261 356.786 65.7422 358.019 66.867C359.251 67.9907 359.335 69.8972 358.205 71.1237Z" fill="#231F20"/>
</g>
<defs>
<clipPath id="clip0_2413_27031">
<rect width="359" height="327" fill="white" transform="translate(0 -87)"/>
</clipPath>
</defs>
</svg>
