<svg width="25" height="25" viewBox="0 0 25 25" fill="none" xmlns="http://www.w3.org/2000/svg">
<path opacity="0.4" d="M11.26 20.52C16.2361 20.52 20.27 16.4861 20.27 11.51C20.27 6.53391 16.2361 2.5 11.26 2.5C6.28391 2.5 2.25 6.53391 2.25 11.51C2.25 16.4861 6.28391 20.52 11.26 20.52Z" fill="#6BC3E8"/>
<path d="M22.2401 19.45C21.9101 18.84 21.2101 18.5 20.2701 18.5C19.5601 18.5 18.9501 18.79 18.5901 19.29C18.2301 19.79 18.1501 20.46 18.3701 21.13C18.8001 22.43 19.5501 22.72 19.9601 22.77C20.0201 22.78 20.0801 22.78 20.1501 22.78C20.5901 22.78 21.2701 22.59 21.9301 21.6C22.4601 20.83 22.5601 20.06 22.2401 19.45Z" fill="#6BC3E8"/>
</svg>
